# xmcd
#
# Track frame offsets:
#	150
#	17123
#	34683
#	50753
#	66418
#	78818
#	95423
#	111068
#	124503
#
# Disc length: 1876 seconds
#
# Revision: 2
# Processed by: cddbd v1.5.2PL0 Copyright (c) Steve Scherf et al.
# Submitted via: EasyCDDAExtractor 9.1.3.1
#
DISCID=6e075209
DTITLE=Various Artist - New Country
DYEAR=1900
DGENRE=Country
TTITLE0=Schuyler, Knobloch and Bickhardt - No Easy Horses
TTITLE1=Judy Rodman - Until I Met You
TTITLE2=Schuyler, Knobloch and Overstreet - You Can't Stop Love
TTITLE3=Girls Next Door - Slow Boat to China
TTITLE4=Becky Hobbs - They Always Look Better When They're Leavin'
TTITLE5=Judy Rodman - She Thinks She'll Marry
TTITLE6=Schuyler, Knobloch and Overstreet - Baby's Got a New Baby
TTITLE7=Becky Hobbs - Jones on the Jukebox
TTITLE8=Judy Rodman - Girls Ride Horses Too
EXTD=
EXTT0=Schuyler, Knobloch and Bickhardt
EXTT1=Judy Rodman
EXTT2=Schuyler, Knobloch and Overstreet
EXTT3=Girls Next Door
EXTT4=Becky Hobbs
EXTT5=Judy Rodman
EXTT6=Schuyler, Knobloch and Overstreet
EXTT7=Becky Hobbs
EXTT8=Judy Rodman
PLAYORDER=
